<svg xmlns="http://www.w3.org/2000/svg" viewBox="0 0 635.05 43.78"><title>Asset 4</title><g id="Layer_2" data-name="Layer 2"><g id="Layer_1-2" data-name="Layer 1"><path d="M55.84,42.93V15.69h-.11L36.39,42.93H28.77V15.3h-.11L9.38,42.93H0L30.14.85h6.42V29.91h.12L57.55.85h6.08V42.93Z"/><path d="M65.44,42.93V.85h7.8V42.93Z"/><path d="M90.63,8.13v34.8H82.84V8.13H75.05V.85H98.48V8.13Z"/><path d="M150.44,8.13v34.8h-7.79V8.13H138.5a10.07,10.07,0,0,1,.74,3.87h-8c-.06-3-2.11-4.72-4.21-4.72a4.23,4.23,0,0,0-4.44,4.38c0,3.24,2.34,4.66,6.37,6.2,7.05,2.72,10.69,6.65,10.69,13.13,0,6.14-4.09,12.79-13,12.79s-14-6.14-14-12.9h8.08a5.33,5.33,0,0,0,5.62,5.63c4,0,5.46-3,5.46-5,0-2.5-.74-4.89-6.08-6.82-3.75-1.37-5.52-2.33-7.45-4.15a11.86,11.86,0,0,1-3.53-8.7c0-7,5.58-11.83,12.34-11.83a10.51,10.51,0,0,1,7.68,2.9v-2h23.43V8.13Z"/><path d="M187.57,37.53A15.42,15.42,0,0,1,175,43.78a15.78,15.78,0,0,1-12.51-6c-2.1-2.79-2.61-6.77-2.61-10.18V.85h7.79V27.58c0,4.89,1.59,8.93,7.28,8.93s7.27-4,7.27-8.93V.85H190V27.58C190,31,189.56,34.63,187.57,37.53Z"/><path d="M224.53,42.93V29.28h-.12A19.24,19.24,0,0,1,215.6,40.2c-3.87,2.16-9.27,2.73-14,2.73h-9.72V.85h9.55c10.35,0,14.84,2.79,17.29,4.89a20,20,0,0,1,5.68,8.87h.12V.85h22.63V8.13H232.32V18.42h14.21V25.7H232.32v10h14.84v7.28ZM213.38,11.66c-3.24-2.9-7.33-3.53-12.22-3.53h-1.48V35.65h1.65c4.21,0,6.94-.28,10.23-2,4.15-2.28,6.31-7.11,6.31-11.6A14,14,0,0,0,213.38,11.66Z"/><path d="M276.1,42.93,256.88,15.07h-.12V42.93H249V.85H256l19.22,27.87.11-.06V8.13h-7.22V.85h15V42.93Zm16.55-34.8v34.8h-7.79V.85H300V8.13Z"/><path d="M310,43.78a13.4,13.4,0,0,1-13.7-12.9h8.19c.28,3.18,2.22,5.63,5.57,5.63,3,0,5.8-2.11,5.8-5.29,0-4.78-4.32-5.69-8-7.11-1.3-.51-2.56-1-3.81-1.59-4.26-2.22-6.19-5.69-6.19-10.52,0-6.94,5.45-12,12.34-12a12.35,12.35,0,0,1,12.45,12h-8c-.23-2.85-1.77-4.72-4.72-4.72a4.16,4.16,0,0,0-4.32,4.26c0,4,3.86,4.84,7,5.86,6.37,2.1,11,5.57,11,13C323.63,38.33,317.83,43.78,310,43.78Z"/><path d="M359.74,42.93V32.07H347.8l-7.51,10.86h-9.44L360.42.85h7.11V42.93Zm0-28.2h-.12L352.8,24.79h6.94Z"/><path d="M412.79,42.93V28.77h-.12c-1.93,5.75-8.07,15-21.89,15a22,22,0,0,1-22.29-21.84C368.49,9.33,379.24,0,390.5,0a22.73,22.73,0,0,1,15.07,5.35L401,12.05a13.23,13.23,0,0,0-10.64-4.77c-8.81,0-14.1,7.85-14.1,14.61,0,7.57,5.69,13.31,11.43,14.28l5.06-7.4H386V21.49h11.83L411.94.85h8.64V42.93ZM402,28.77l-4.49,6.6a12.92,12.92,0,0,0,6.42-6.6Zm10.75-17.11h-.12l-6.19,9.83h6.31Z"/><path d="M422.11,42.93V.85h7.79V42.93Z"/><path d="M456.85,42.93,439.28,12.34h-.11V42.93h-7.79V.85h8.87l17.4,30.6h.11V.85h7.79V42.93Z"/><path d="M503.93,8.13v34.8h-7.79V8.13H492a10.07,10.07,0,0,1,.74,3.87h-8c-.06-3-2.11-4.72-4.21-4.72a4.23,4.23,0,0,0-4.44,4.38c0,3.24,2.34,4.66,6.37,6.2,7.05,2.72,10.69,6.65,10.69,13.13,0,6.14-4.09,12.79-13,12.79s-14-6.14-14-12.9h8.07a5.34,5.34,0,0,0,5.63,5.63c4,0,5.46-3,5.46-5,0-2.5-.74-4.89-6.08-6.82-3.75-1.37-5.52-2.33-7.45-4.15a11.86,11.86,0,0,1-3.53-8.7c0-7,5.58-11.83,12.34-11.83a10.51,10.51,0,0,1,7.68,2.9v-2h23.43V8.13Z"/><path d="M566.82,42.93h-6.94V15h-.11l-19,27.92h-7.45V.85h7.79V29.51h.12L560.73.85h6.94V28.77h.11L587,.85h9.39Z"/><path d="M597.41,42.93V32.07H585.46L578,42.93h-9.44L598.09.85h7.11V42.93Zm0-28.2h-.12l-6.82,10.06h6.94Z"/><path d="M625.61,42.93,614.46,26.84h-.11V42.93h-7.79V.85h12.91c3.69,0,7.27.46,10.23,2.85a13,13,0,0,1,4.95,10.17,14.63,14.63,0,0,1-4,10.07,13.56,13.56,0,0,1-7,3.47l11.43,15.52Zm-6.26-34.8h-5V21h5c4.15,0,7.51-2,7.51-6.48S623.33,8.13,619.35,8.13Z"/></g></g></svg>